<svg xmlns="http://www.w3.org/2000/svg" viewBox="0 0 64 64"><g id="_05-Play" data-name="05-Play"><polygon points="17 63 55 32 17 1 17 63" style="fill:#6bdcff"/><path d="M24,34.868V6.711L17,1V63L55,32,35.669,41.977A8,8,0,0,1,24,34.868Z" style="fill:#48befd"/><polygon points="13 5 13 59 17 63 17 1 13 5" style="fill:#1c69a1"/><path d="M14.2,42.9A3,3,0,0,1,13,40.5V59l4,4V41.5A1.75,1.75,0,0,1,14.2,42.9Z" style="fill:#15507a"/><line x1="17" y1="11" x2="17" y2="9" style="fill:none;stroke:#000;stroke-linejoin:round;stroke-width:2px"/><polyline points="23.129 58 17 63 17 13" style="fill:none;stroke:#000;stroke-linejoin:round;stroke-width:2px"/><polyline points="17 7 17 1 55 32 25 56.474" style="fill:none;stroke:#000;stroke-linejoin:round;stroke-width:2px"/><polyline points="17 1 13 5 13 59 17 63" style="fill:none;stroke:#000;stroke-linejoin:round;stroke-width:2px"/></g></svg>